# xmcd
#
# Track frame offsets: 
#        150
#        12600
#        25223
#        41178
#        58258
#        70800
#        88050
#        107648
#        119865
#        137693
#        155695
#        172065
#        187223
#        204905
#
# Disc length: 2949 seconds
#
# Revision: 2
# Processed by: cddbd v1.5.2PL0 Copyright (c) Steve Scherf et al.
# Submitted via: ExactAudioCopy v0.95a5
#
DISCID=d80b830e
DTITLE=Various Artist - HOT HITS COUNTRY VOL 27
DYEAR=1900
DGENRE=Country
TTITLE0=DIAMOND RIO - This Romeo Ain't Got Julie Yet
TTITLE1=CLAY WALKER - What's It To You
TTITLE2=LORRIE MORGAN - Half Enough
TTITLE3=PAM TILLIS - Do You Know Where Your Man Is
TTITLE4=TRACY LAWRENCE - My Second Home
TTITLE5=DOUG SUPERNAW - I Don't Call Him Daddy
TTITLE6=REBA MCENTIRE W LINDA DAVIS - Does He Love You
TTITLE7=JOHN ANDERSON - I Fell In the Water
TTITLE8=BROOKS and DUNN - She Used To Be Mine
TTITLE9=MARK CHESNUTT - Almost Goodbye
TTITLE10=MARK COLLIE - Something's Gonna Change Her Mind
TTITLE11=SUZY BOGGUSS - Just Like The Weather
TTITLE12=TRISHA YEARWOOD - Song Remembers When
TTITLE13=BROTHER PHELPS - Let Go
EXTD=
EXTT0=Diamond Rio
EXTT1=Walker - Clay
EXTT2=Morgan - Lorrie
EXTT3=Tillis - Pam
EXTT4=Lawrence - Tracy
EXTT5=Supernaw - Doug
EXTT6=McEntire - Reba w/ Davis - Linda
EXTT7=Anderson - John
EXTT8=Brook and Dunn
EXTT9=Chesnutt - Mark
EXTT10=Collie - Mark
EXTT11=Bogguss - Suzy
EXTT12=Yearwood - Trisha
EXTT13=Brother Phelps
PLAYORDER=
